<svg width="1600" height="900" viewBox="0 0 1600 900" fill="none" xmlns="http://www.w3.org/2000/svg">
<rect width="1600" height="900" fill="#E8D9C1"/>
<rect x="88" y="88" width="1424" height="724" stroke="#FCFAF6" stroke-opacity="0.35" stroke-width="4"/>
<rect x="210" y="140" width="1180" height="620" fill="#F4EDE2"/>
<circle cx="1048" cy="384" r="170" fill="#6F2401"/>
<path d="M920 408C920 318.53 992.53 246 1082 246H1114C1203.47 246 1276 318.53 1276 408V428H920V408Z" fill="#AD4A1D"/>
<path d="M796 638C796 542.418 873.418 465 969 465H1227C1322.58 465 1400 542.418 1400 638V666H796V638Z" fill="#8B2E01"/>
<circle cx="1082" cy="346" r="96" fill="#D1784D"/>
<rect x="358" y="220" width="290" height="22" fill="#8B2E01" fill-opacity="0.7"/>
<rect x="358" y="266" width="356" height="22" fill="#8B2E01" fill-opacity="0.24"/>
<rect x="358" y="470" width="232" height="18" fill="#8B2E01" fill-opacity="0.18"/>
<rect x="358" y="512" width="306" height="18" fill="#8B2E01" fill-opacity="0.12"/>
</svg>
