<svg width="1600" height="900" viewBox="0 0 1600 900" fill="none" xmlns="http://www.w3.org/2000/svg">
<rect width="1600" height="900" fill="#E7DCCA"/>
<rect x="88" y="88" width="1424" height="724" stroke="#FCFAF6" stroke-opacity="0.35" stroke-width="4"/>
<path d="M1118 220C1228.46 260.43 1294 369.079 1264.44 462.669C1234.87 556.259 1121.43 608.941 1010.97 568.511C900.505 528.081 834.961 419.432 864.528 325.842C894.095 232.252 1007.53 179.57 1118 220Z" fill="#6F2401"/>
<path d="M1094 264C1174.7 293.532 1221.86 373.247 1199.33 444.048C1176.79 514.849 1093.08 554.354 1012.37 524.822C931.676 495.289 884.513 415.575 907.049 344.774C929.585 273.972 1013.3 234.467 1094 264Z" fill="#AD4A1D"/>
<path d="M1086 312C1137.72 330.922 1167.54 381.792 1152.6 425.324C1137.66 468.857 1083.63 488.568 1031.91 469.646C980.194 450.724 950.37 399.854 965.31 356.321C980.25 312.789 1034.28 293.078 1086 312Z" fill="#D1784D"/>
<path d="M338 586C426.873 440.643 566.682 324 748 324C929.318 324 1069.13 440.643 1158 586" stroke="#8B2E01" stroke-opacity="0.18" stroke-width="32" stroke-linecap="round"/>
<circle cx="540" cy="360" r="14" fill="#8B2E01" fill-opacity="0.22"/>
<circle cx="668" cy="250" r="10" fill="#8B2E01" fill-opacity="0.22"/>
<circle cx="1280" cy="454" r="12" fill="#8B2E01" fill-opacity="0.22"/>
</svg>
